<?xml version="1.0" encoding="UTF-8" standalone="no"?>
<!-- Created with Inkscape (http://www.inkscape.org/) -->

<svg
   version="1.1"
   id="svg2"
   width="2829.3333"
   height="2829.3333"
   viewBox="0 0 2829.3333 2829.3333"
   sodipodi:docname="vecteezy_desktop-computer-device_.svg"
   inkscape:version="1.2.1 (9c6d41e410, 2022-07-14)"
   xmlns:inkscape="http://www.inkscape.org/namespaces/inkscape"
   xmlns:sodipodi="http://sodipodi.sourceforge.net/DTD/sodipodi-0.dtd"
   xmlns="http://www.w3.org/2000/svg"
   xmlns:svg="http://www.w3.org/2000/svg">
  <defs
     id="defs6" />
  <sodipodi:namedview
     id="namedview4"
     pagecolor="#ffffff"
     bordercolor="#000000"
     borderopacity="0.25"
     inkscape:showpageshadow="2"
     inkscape:pageopacity="0.0"
     inkscape:pagecheckerboard="0"
     inkscape:deskcolor="#d1d1d1"
     showgrid="false"
     inkscape:zoom="0.21917978"
     inkscape:cx="84.405595"
     inkscape:cy="1341.3646"
     inkscape:window-width="1920"
     inkscape:window-height="1057"
     inkscape:window-x="-8"
     inkscape:window-y="-8"
     inkscape:window-maximized="1"
     inkscape:current-layer="g10" />
  <g
     id="g8"
     inkscape:groupmode="layer"
     inkscape:label="ink_ext_XXXXXX"
     transform="matrix(1.3333333,0,0,-1.3333333,0,2829.3333)">
    <g
       id="g10"
       transform="scale(0.1)">
      <path
         d="M 8298.8588,5600.5027 H 12585.208 V 6733.1249 H 8298.8588 V 5600.5027"
         style="fill:#99a2a2;fill-opacity:1;fill-rule:nonzero;stroke:none;stroke-width:1"
         id="path12" />
      <path
         d="M 1586.1169,7561.2679 V 8902.6976 H 958.17597 v 9408.6104 h -0.038 V 7590.1213 c 0,-473.2969 383.72483,-856.9964 857.05973,-856.9964 h 599.0749 c -457.3896,0 -828.1557,370.7914 -828.1557,828.143"
         style="fill:#99a2a2;fill-opacity:1;fill-rule:nonzero;stroke:none;stroke-width:1"
         id="path14" />
      <path
         d="m 19282.991,7561.2679 c 0,-457.3516 -370.791,-828.143 -828.269,-828.143 h 599.087 c 473.424,0 857.123,383.6995 857.123,856.9964 v 1312.5763 h -627.941 V 7561.2679"
         style="fill:#99a2a2;fill-opacity:1;fill-rule:nonzero;stroke:none;stroke-width:1"
         id="path16" />
      <path
         d="M 19282.991,7561.2679 V 8902.6976 H 1586.1169 V 7561.2679 c 0,-457.3516 370.7661,-828.143 828.1557,-828.143 h 5884.5862 4286.3492 5869.514 c 457.478,0 828.269,370.7914 828.269,828.143"
         style="fill:#b8c4c3;fill-opacity:1;fill-rule:nonzero;stroke:none;stroke-width:1"
         id="path18" />
      <path
         d="M 19282.991,9449.8997 H 1586.1169 V 19721.201 H 19282.991 V 18340.162 Z M 19053.809,20399.509 H 1815.1977 c -473.3349,0 -857.02173,-383.699 -857.02173,-856.996 V 18311.308 8902.6976 h 627.94093 17696.8741 627.941 v 9408.6104 1231.205 c 0,473.297 -383.699,856.996 -857.123,856.996"
         style="fill:#1f2021;fill-opacity:1;fill-rule:nonzero;stroke:none;stroke-width:1"
         id="path20" />
      <path
         d="M 19282.991,19721.201 H 1586.1169 L 19282.991,9449.8997 Z"
         style="fill:#c451ff;fill-opacity:1;fill-rule:nonzero;stroke:none;stroke-width:1"
         id="path22" />
      <path
         d="M 1586.1169,19721.201 V 9449.8997 H 19282.991 Z"
         style="fill:#a53bff;fill-opacity:1;fill-rule:nonzero;stroke:none;stroke-width:1"
         id="path24"
         inkscape:highlight-color="#b2adb5" />
      <path
         d="m 7647.1518,5600.5027 c -105.5553,0 -191.9004,-86.4336 -191.9004,-191.9763 v -573.7776 c 0,-105.5426 86.3451,-191.8497 191.9004,-191.8497 H 13236.94 c 105.543,0 191.85,86.3071 191.85,191.8497 v 573.7776 c 0,105.5427 -86.307,191.9763 -191.85,191.9763 h -651.732 -4286.3492 -651.707"
         style="fill:#b8c4c3;fill-opacity:1;fill-rule:nonzero;stroke:none;stroke-width:1"
         id="path26" />
      <path
         d="M 17147.207,1244.5262 H 2849.769 c -120.4503,0 -210.8449,90.2301 -225.6892,197.1648 -25.0063,-231.5864 295.8232,-614.40006 679.1937,-614.40006 H 16631.263 c 442.799,0 772.967,379.64986 740.95,608.32566 -17.464,-104.2771 -106.808,-191.0904 -225.006,-191.0904"
         style="fill:#819498;fill-opacity:1;fill-rule:nonzero;stroke:none;stroke-width:1"
         id="path28" />
      <path
         d="m 4124.317,3754.5183 h 509.1358 l -64.7935,-141.9891 -515.4254,-0.1265 z m 1446.1371,0 -53.404,-141.8625 -511.8694,-0.1266 59.5924,141.9891 z m 930.4713,0 -42.1411,-141.736 h -508.1614 l 48.089,141.736 z m 924.1185,0 -30.992,-141.736 -504.7066,-0.1265 36.9146,141.8625 z m 917.7784,0 -20.0329,-141.4829 -501.2138,-0.1265 25.8921,141.6094 z m 911.628,0 -9.3773,-141.4829 -497.8097,-0.1265 15.1354,141.6094 z m 905.3007,0 1.265,-141.3563 -494.2785,-0.1266 4.4166,141.4829 z m 899.264,0 11.643,-141.2298 -490.888,-0.1265 -6.074,141.3563 z m 893.316,0 21.893,-141.1032 h -487.597 l -16.325,141.1032 z m 887.115,0 32.018,-140.8501 -484.181,-0.2531 -26.575,141.1032 z m 881.294,0 42.015,-140.9767 h -481.016 l -36.7,140.9767 z m 875.473,0 51.759,-140.8501 h -477.726 l -46.57,140.8501 z m 869.652,0 61.25,-140.7236 h -474.563 l -56.061,140.7236 z m 791.57,-638.6977 -513.034,-0.2531 -118.83,272.5886 502.53,0.2531 z m 169.07,-1564.9169 -105.416,241.9635 563.148,1.7717 114.654,-241.7104 z m -1065.803,-3.5434 -88.332,242.5963 567.956,1.6451 97.696,-242.2166 z m -570.741,1567.4479 -99.468,273.0948 506.2,0.1266 110.098,-272.8418 z m 149.076,-409.3892 -96.431,264.8691 522.398,0.5062 106.682,-264.616 z m 1887.113,-788.4063 -1966.08,-5.062 -84.536,249.6831 1932.545,4.0496 z m -1018.854,1054.1613 518.729,0.5062 196.152,-413.945 h 0.127 l 121.488,-256.2637 -544.039,-1.0124 v 0 l -1012.653,-1.8982 -93.52,256.8964 994.303,1.5186 z m -1521.636,-1427.3571 -70.742,243.229 572.639,1.6452 80.485,-242.8494 z m -123.513,616.5514 73.778,-249.9362 -570.234,-1.5186 -64.034,250.3159 z m -333.966,953.8071 -79.6,273.348 509.997,0.2531 90.23,-273.348 z m 705.896,-559.4774 85.168,-257.023 -552.897,-1.0124 -74.917,257.4027 z m -586.432,149.4555 -77.322,265.3753 526.447,0.3797 87.7,-265.1222 z M 13201.253,1540.4 l -52.898,243.6087 577.574,1.6452 62.769,-243.4822 z m -1093.772,-3.7965 -34.674,244.368 582.636,1.7717 44.419,-244.1149 z m -4472.4527,-14.5532 41.8121,246.6459 3898.6246,10.8833 26.323,-244.4946 z m -523.9422,-1.7717 -619.0951,-2.0248 61.845,247.1521 608.1991,1.7717 z m -997.239,623.0055 594.0129,1.2655 -62.4018,-253.7327 -605.1493,-1.5186 z m -150.4553,-626.802 -624.7519,-2.1514 82.4093,247.9114 613.5143,1.7717 z m -283.6111,1025.3078 578.7509,0.8859 -75.0441,-260.9461 -590.4062,-1.1389 z m 699.6062,421.1583 -77.1449,-268.1594 -571.8667,-0.7593 89.1545,268.5391 z m -511.2366,145.7856 91.5842,276.132 h 540.9252 L 6421.3255,3109.24 Z m 1540.632,-144.7732 -55.2391,-267.9063 -567.2602,-0.7593 67.0841,268.0329 z m 30.1189,145.9121 -549.0118,-0.3796 68.8432,275.6258 536.9389,0.2531 z m -755.7691,-827.1306 65.2238,260.5664 573.8789,0.8859 -53.6825,-260.3133 z m 527.435,-137.0536 589.0015,1.2655 -41.7489,-253.2265 -600.0873,-1.5186 z m 1166.9046,400.0245 -32.7765,-259.9337 -580.5859,-1.1389 44.0014,260.3133 z m 52.8093,419.1335 -33.7509,-267.5267 -562.7424,-0.6327 45.3429,267.6532 z m 18.375,145.659 -544.8482,-0.3797 46.5071,275.2462 533.0158,0.2531 z m 433.4716,-961.2736 -21.5388,-252.7203 -594.8734,-1.5186 32.3462,252.9734 z m 542.1148,397.8731 -12.2121,-259.3009 -575.8403,-1.0124 23.2219,259.6806 z m 19.6153,418.6273 -12.5158,-267.0204 -558.3512,-0.8859 23.9433,267.2736 z m 6.8716,145.5325 -540.7353,-0.3797 24.6772,274.9931 528.9409,0.1266 z m 505.023,-959.755 -1.8983,-252.0875 -589.7228,-1.5186 12.3639,252.3406 z m 1064.6647,2.1514 17.717,-251.5814 -584.914,-1.392 -7.213,251.7079 z m 411.794,958.9956 -532.649,-0.5062 -18.097,274.2338 521.26,0.2531 z m -505.441,-412.1732 -17.59,266.3877 538.596,0.5062 28.601,-266.2612 z m 27.208,-409.7688 -17.21,258.7947 555.807,0.7593 27.715,-258.4151 z m 1122.246,-134.7757 36.699,-250.9486 -579.852,-1.5186 -26.449,251.3282 z m -192.989,956.9708 -39.104,273.8542 517.463,0.2531 50.24,-273.7276 z m 58.466,-411.1608 -37.965,266.008 534.547,0.5062 48.722,-265.8815 z m 58.213,-409.0095 -36.826,258.2885 551.378,0.7593 47.33,-258.0354 z m 1123.511,-134.5226 55.428,-250.569 -575.043,-1.5186 -45.304,250.8221 z m -264.11,955.1991 -59.479,273.7276 513.667,0.2531 70.488,-273.4745 z m 669.069,-560.1101 66.313,-257.5292 -557.326,-1.139 -56.062,257.7823 z m -579.851,149.582 -57.707,265.755 530.497,0.3796 68.337,-265.3753 z m -2485.948,-154.0113 7.973,-259.0478 -571.1205,-1.1389 2.9107,259.3009 z m -12.908,417.6149 8.099,-266.5142 -553.7827,-0.8859 2.9107,267.0205 z m -4.556,145.4059 -536.5719,-0.2531 3.0372,274.4869 525.1827,0.1266 z m -5437.2194,-971.0179 599.0495,1.2655 -83.3078,-254.1123 -610.553,-1.7717 z m -202.518,-628.194 -630.3454,-2.1514 103.1256,248.6707 619.0572,1.6452 z m -1168.5118,-3.9231 -636.0275,-2.1513 124.424,249.1769 624.5241,1.7717 z m 725.878,1598.9589 -561.9451,-0.2531 138.2811,276.6382 549.1256,0.2531 z m 131.1311,-829.282 108.7064,261.7054 583.4586,0.8858 -96.7347,-261.4522 z m -1108.3626,-2.0248 131.0551,262.085 588.1663,1.0124 -118.8937,-261.9584 z m 1291.0375,-136.0412 -101.2147,-254.8716 -1387.0003,-3.5434 127.6256,255.3778 z m 665.2605,821.689 -99.3544,-268.6656 -1649.5282,-2.0248 134.5985,269.4249 z m -388.6223,422.2972 545.0254,0.2531 -102.1891,-276.0055 -557.5032,-0.6327 z M 2849.769,1244.5262 h 14297.438 c 118.198,0 207.542,86.8133 225.006,191.0904 7.214,43.7863 2.152,90.4833 -19.235,135.282 l -1056.313,2207.7907 c -64.667,135.1554 -201.214,221.2094 -351.05,221.2094 H 4051.361 c -149.7972,0 -286.2814,-86.054 -350.9231,-221.2094 L 2644.0873,1570.8986 c -20.4251,-42.6474 -25.8668,-87.193 -20.0075,-129.2076 14.8443,-106.9347 105.2389,-197.1648 225.6892,-197.1648"
         style="fill:#b8c4c3;fill-opacity:1;fill-rule:nonzero;stroke:none;stroke-width:1"
         id="path30" />
      <path
         d="m 4568.6593,3612.5292 64.7935,141.9891 H 4124.317 l -71.0831,-142.1156 515.4254,0.1265"
         style="fill:#819498;fill-opacity:1;fill-rule:nonzero;stroke:none;stroke-width:1"
         id="path32" />
      <path
         d="m 5005.1807,3612.5292 511.8694,0.1266 53.404,141.8625 h -505.681 l -59.5924,-141.9891"
         style="fill:#819498;fill-opacity:1;fill-rule:nonzero;stroke:none;stroke-width:1"
         id="path34" />
      <path
         d="m 5950.6229,3612.7823 h 508.1614 l 42.1411,141.736 h -502.2135 l -48.089,-141.736"
         style="fill:#819498;fill-opacity:1;fill-rule:nonzero;stroke:none;stroke-width:1"
         id="path36" />
      <path
         d="m 6889.3453,3612.6558 504.7066,0.1265 30.992,141.736 h -498.784 l -36.9146,-141.8625"
         style="fill:#819498;fill-opacity:1;fill-rule:nonzero;stroke:none;stroke-width:1"
         id="path38" />
      <path
         d="m 7821.5756,3612.9089 501.2138,0.1265 20.0329,141.4829 h -495.3546 l -25.8921,-141.6094"
         style="fill:#819498;fill-opacity:1;fill-rule:nonzero;stroke:none;stroke-width:1"
         id="path40" />
      <path
         d="m 8747.2633,3612.9089 497.8097,0.1265 9.3773,141.4829 h -492.0516 l -15.1354,-141.6094"
         style="fill:#819498;fill-opacity:1;fill-rule:nonzero;stroke:none;stroke-width:1"
         id="path42" />
      <path
         d="m 9666.7375,3613.0354 494.2785,0.1266 -1.265,141.3563 h -488.5969 l -4.4166,-141.4829"
         style="fill:#819498;fill-opacity:1;fill-rule:nonzero;stroke:none;stroke-width:1"
         id="path44" />
      <path
         d="m 10579.77,3613.162 490.888,0.1265 -11.643,141.2298 h -485.319 l 6.074,-141.3563"
         style="fill:#819498;fill-opacity:1;fill-rule:nonzero;stroke:none;stroke-width:1"
         id="path46" />
      <path
         d="m 11486.627,3613.4151 h 487.597 l -21.893,141.1032 h -482.029 l 16.325,-141.1032"
         style="fill:#819498;fill-opacity:1;fill-rule:nonzero;stroke:none;stroke-width:1"
         id="path48" />
      <path
         d="m 12387.283,3613.4151 484.181,0.2531 -32.018,140.8501 h -478.738 l 26.575,-141.1032"
         style="fill:#819498;fill-opacity:1;fill-rule:nonzero;stroke:none;stroke-width:1"
         id="path50" />
      <path
         d="m 13281.739,3613.5416 h 481.016 l -42.015,140.9767 h -475.701 l 36.7,-140.9767"
         style="fill:#819498;fill-opacity:1;fill-rule:nonzero;stroke:none;stroke-width:1"
         id="path52" />
      <path
         d="m 14170.246,3613.6682 h 477.726 l -51.759,140.8501 h -472.537 l 46.57,-140.8501"
         style="fill:#819498;fill-opacity:1;fill-rule:nonzero;stroke:none;stroke-width:1"
         id="path54" />
      <path
         d="m 15052.552,3613.7947 h 474.563 l -61.25,140.7236 h -469.374 l 56.061,-140.7236"
         style="fill:#819498;fill-opacity:1;fill-rule:nonzero;stroke:none;stroke-width:1"
         id="path56" />
      <path
         d="m 3800.8047,3107.4683 561.9451,0.2531 125.4616,276.6382 -549.1256,-0.2531 -138.2811,-276.6382"
         style="fill:#819498;fill-opacity:1;fill-rule:nonzero;stroke:none;stroke-width:1"
         id="path58" />
      <path
         d="m 5498.2194,3384.6127 -545.0254,-0.2531 -114.6669,-276.3851 557.5032,0.6327 102.1891,276.0055"
         style="fill:#819498;fill-opacity:1;fill-rule:nonzero;stroke:none;stroke-width:1"
         id="path60" />
      <path
         d="m 6500.6597,3384.8658 h -540.9252 l -91.5842,-276.132 553.1752,0.5062 79.3342,275.6258"
         style="fill:#819498;fill-opacity:1;fill-rule:nonzero;stroke:none;stroke-width:1"
         id="path62" />
      <path
         d="m 6889.8894,3109.4931 549.0118,0.3796 56.7703,275.4993 -536.9389,-0.2531 -68.8432,-275.6258"
         style="fill:#819498;fill-opacity:1;fill-rule:nonzero;stroke:none;stroke-width:1"
         id="path64" />
      <path
         d="m 7903.8078,3110.1258 544.8482,0.3797 34.6747,275.1196 -533.0158,-0.2531 -46.5071,-275.2462"
         style="fill:#819498;fill-opacity:1;fill-rule:nonzero;stroke:none;stroke-width:1"
         id="path66" />
      <path
         d="m 8909.994,3110.8851 540.7353,0.3797 12.8828,274.74 -528.9409,-0.1266 -24.6772,-274.9931"
         style="fill:#819498;fill-opacity:1;fill-rule:nonzero;stroke:none;stroke-width:1"
         id="path68" />
      <path
         d="m 9908.5491,3111.6444 536.5719,0.2531 -8.352,274.3604 -525.1827,-0.1266 -3.0372,-274.4869"
         style="fill:#819498;fill-opacity:1;fill-rule:nonzero;stroke:none;stroke-width:1"
         id="path70" />
      <path
         d="m 10899.562,3112.1506 532.649,0.5062 -29.486,273.9807 -521.26,-0.2531 18.097,-274.2338"
         style="fill:#819498;fill-opacity:1;fill-rule:nonzero;stroke:none;stroke-width:1"
         id="path72" />
      <path
         d="m 11844.131,3386.7641 39.104,-273.8542 528.599,0.3797 -50.24,273.7276 -517.463,-0.2531"
         style="fill:#819498;fill-opacity:1;fill-rule:nonzero;stroke:none;stroke-width:1"
         id="path74" />
      <path
         d="m 12799.836,3387.1437 59.479,-273.7276 524.676,0.5062 -70.488,273.4745 -513.667,-0.2531"
         style="fill:#819498;fill-opacity:1;fill-rule:nonzero;stroke:none;stroke-width:1"
         id="path76" />
      <path
         d="m 13748.581,3387.5234 79.6,-273.348 520.627,0.2531 -90.23,273.348 -509.997,-0.2531"
         style="fill:#819498;fill-opacity:1;fill-rule:nonzero;stroke:none;stroke-width:1"
         id="path78" />
      <path
         d="m 14690.493,3387.903 99.468,-273.0948 516.83,0.3796 -110.098,272.8418 -506.2,-0.1266"
         style="fill:#819498;fill-opacity:1;fill-rule:nonzero;stroke:none;stroke-width:1"
         id="path80" />
      <path
         d="m 15625.571,3388.1561 118.83,-272.5886 513.034,0.2531 -129.334,272.5886 -502.53,-0.2531"
         style="fill:#819498;fill-opacity:1;fill-rule:nonzero;stroke:none;stroke-width:1"
         id="path82" />
      <path
         d="m 3000.8443,1506.6112 636.0275,2.1513 112.9206,248.7973 -624.5241,-1.7717 -124.424,-249.1769"
         style="fill:#819498;fill-opacity:1;fill-rule:nonzero;stroke:none;stroke-width:1"
         id="path84" />
      <path
         d="m 4175.0382,1510.5342 630.3454,2.1514 91.8374,248.1645 -619.0572,-1.6452 -103.1256,-248.6707"
         style="fill:#819498;fill-opacity:1;fill-rule:nonzero;stroke:none;stroke-width:1"
         id="path86" />
      <path
         d="m 5338.6399,1514.3307 624.7519,2.1514 71.1717,247.5317 -613.5143,-1.7717 -82.4093,-247.9114"
         style="fill:#819498;fill-opacity:1;fill-rule:nonzero;stroke:none;stroke-width:1"
         id="path88" />
      <path
         d="m 6491.991,1518.2538 619.0951,2.0248 50.949,246.899 -608.1991,-1.7717 -61.845,-247.1521"
         style="fill:#819498;fill-opacity:1;fill-rule:nonzero;stroke:none;stroke-width:1"
         id="path90" />
      <path
         d="m 7676.8404,1768.6962 -41.8121,-246.6459 3966.7597,13.0346 -26.323,244.4946 -3898.6246,-10.8833"
         style="fill:#819498;fill-opacity:1;fill-rule:nonzero;stroke:none;stroke-width:1"
         id="path92" />
      <path
         d="m 12072.807,1780.9715 34.674,-244.368 592.381,2.0248 -44.419,244.1149 -582.636,-1.7717"
         style="fill:#819498;fill-opacity:1;fill-rule:nonzero;stroke:none;stroke-width:1"
         id="path94" />
      <path
         d="m 13148.355,1784.0087 52.898,-243.6087 587.445,1.7717 -62.769,243.4822 -577.574,-1.6452"
         style="fill:#819498;fill-opacity:1;fill-rule:nonzero;stroke:none;stroke-width:1"
         id="path96" />
      <path
         d="m 14214.918,1787.0459 70.742,-243.229 582.382,2.0248 -80.485,242.8494 -572.639,-1.6452"
         style="fill:#819498;fill-opacity:1;fill-rule:nonzero;stroke:none;stroke-width:1"
         id="path98" />
      <path
         d="m 15272.37,1789.9566 88.332,-242.5963 577.32,2.0248 -97.696,242.2166 -567.956,-1.6451"
         style="fill:#819498;fill-opacity:1;fill-rule:nonzero;stroke:none;stroke-width:1"
         id="path100" />
      <path
         d="m 16321.089,1792.8672 105.416,-241.9635 572.386,2.0248 -114.654,241.7104 -563.148,-1.7717"
         style="fill:#819498;fill-opacity:1;fill-rule:nonzero;stroke:none;stroke-width:1"
         id="path102" />
      <path
         d="m 3188.3408,1881.9584 1387.0003,3.5434 101.2147,254.8716 -1360.5894,-3.0372 -127.6256,-255.3778"
         style="fill:#819498;fill-opacity:1;fill-rule:nonzero;stroke:none;stroke-width:1"
         id="path104" />
      <path
         d="m 5606.9511,2142.1451 -599.0495,-1.2655 -94.8113,-254.6185 610.553,1.7717 83.3078,254.1123"
         style="fill:#819498;fill-opacity:1;fill-rule:nonzero;stroke:none;stroke-width:1"
         id="path106" />
      <path
         d="m 6707.86,2144.5496 -594.0129,-1.2655 -73.5382,-253.9858 605.1493,1.5186 62.4018,253.7327"
         style="fill:#819498;fill-opacity:1;fill-rule:nonzero;stroke:none;stroke-width:1"
         id="path108" />
      <path
         d="m 7799.5686,2146.954 -589.0015,-1.2655 -52.8347,-253.4796 600.0873,1.5186 41.7489,253.2265"
         style="fill:#819498;fill-opacity:1;fill-rule:nonzero;stroke:none;stroke-width:1"
         id="path110" />
      <path
         d="m 8265.7154,1894.993 594.8734,1.5186 21.5388,252.7203 -584.066,-1.2655 -32.3462,-252.9734"
         style="fill:#819498;fill-opacity:1;fill-rule:nonzero;stroke:none;stroke-width:1"
         id="path112" />
      <path
         d="m 9364.1312,1897.9037 589.7228,1.5186 1.8983,252.0875 -579.2572,-1.2655 -12.3639,-252.3406"
         style="fill:#819498;fill-opacity:1;fill-rule:nonzero;stroke:none;stroke-width:1"
         id="path114" />
      <path
         d="m 10453.22,1900.6878 584.914,1.392 -17.717,251.5814 -574.41,-1.2655 7.213,-251.7079"
         style="fill:#819498;fill-opacity:1;fill-rule:nonzero;stroke:none;stroke-width:1"
         id="path116" />
      <path
         d="m 11533.071,1903.4719 579.852,1.5186 -36.699,250.9486 -569.602,-1.139 26.449,-251.3282"
         style="fill:#819498;fill-opacity:1;fill-rule:nonzero;stroke:none;stroke-width:1"
         id="path118" />
      <path
         d="m 12603.81,1906.1294 575.043,1.5186 -55.428,250.569 -564.919,-1.2655 45.304,-250.8221"
         style="fill:#819498;fill-opacity:1;fill-rule:nonzero;stroke:none;stroke-width:1"
         id="path120" />
      <path
         d="m 13665.691,1908.9135 570.234,1.5186 -73.778,249.9362 -560.49,-1.1389 64.034,-250.3159"
         style="fill:#819498;fill-opacity:1;fill-rule:nonzero;stroke:none;stroke-width:1"
         id="path122" />
      <path
         d="m 14860.07,1911.9507 1966.08,5.062 -118.071,248.6707 -1932.545,-4.0496 84.536,-249.6831"
         style="fill:#819498;fill-opacity:1;fill-rule:nonzero;stroke:none;stroke-width:1"
         id="path124" />
      <path
         d="m 3516.5734,2538.4996 -131.0551,-262.085 600.3277,1.139 118.8937,261.9584 -588.1663,-1.0124"
         style="fill:#819498;fill-opacity:1;fill-rule:nonzero;stroke:none;stroke-width:1"
         id="path126" />
      <path
         d="m 5186.0459,2541.0306 -583.4586,-0.8858 -108.7064,-261.7054 595.4303,1.139 96.7347,261.4522"
         style="fill:#819498;fill-opacity:1;fill-rule:nonzero;stroke:none;stroke-width:1"
         id="path128" />
      <path
         d="m 6258.5316,2542.6758 -578.7509,-0.8859 -86.6994,-261.1991 590.4062,1.1389 75.0441,260.9461"
         style="fill:#819498;fill-opacity:1;fill-rule:nonzero;stroke:none;stroke-width:1"
         id="path130" />
      <path
         d="m 7322.2348,2544.1944 -573.8789,-0.8859 -65.2238,-260.5664 585.4202,1.139 53.6825,260.3133"
         style="fill:#819498;fill-opacity:1;fill-rule:nonzero;stroke:none;stroke-width:1"
         id="path132" />
      <path
         d="m 7764.1093,2284.6404 580.5859,1.1389 32.7765,259.9337 -569.361,-0.7593 -44.0014,-260.3133"
         style="fill:#819498;fill-opacity:1;fill-rule:nonzero;stroke:none;stroke-width:1"
         id="path134" />
      <path
         d="m 8836.19,2286.7917 575.8403,1.0124 12.2121,259.3009 -564.8305,-0.6327 -23.2219,-259.6806"
         style="fill:#819498;fill-opacity:1;fill-rule:nonzero;stroke:none;stroke-width:1"
         id="path136" />
      <path
         d="m 9899.4375,2288.69 571.1205,1.1389 -7.973,259.0478 -560.2368,-0.8858 -2.9107,-259.3009"
         style="fill:#819498;fill-opacity:1;fill-rule:nonzero;stroke:none;stroke-width:1"
         id="path138" />
      <path
         d="m 10936.768,2549.5095 17.21,-258.7947 566.312,1.1389 -27.715,258.4151 -555.807,-0.7593"
         style="fill:#819498;fill-opacity:1;fill-rule:nonzero;stroke:none;stroke-width:1"
         id="path140" />
      <path
         d="m 11963.088,2551.0281 36.826,-258.2885 561.882,1.0124 -47.33,258.0354 -551.378,-0.7593"
         style="fill:#819498;fill-opacity:1;fill-rule:nonzero;stroke:none;stroke-width:1"
         id="path142" />
      <path
         d="m 13594.697,2295.7768 -66.313,257.5292 -547.075,-0.8859 56.062,-257.7823 557.326,1.139"
         style="fill:#819498;fill-opacity:1;fill-rule:nonzero;stroke:none;stroke-width:1"
         id="path144" />
      <path
         d="m 14619.245,2297.675 -85.168,257.023 -542.646,-0.6327 74.917,-257.4027 552.897,1.0124"
         style="fill:#819498;fill-opacity:1;fill-rule:nonzero;stroke:none;stroke-width:1"
         id="path146" />
      <path
         d="m 15087.1,2298.5609 1012.653,1.8982 -111.87,256.5168 -994.303,-1.5186 93.52,-256.8964"
         style="fill:#819498;fill-opacity:1;fill-rule:nonzero;stroke:none;stroke-width:1"
         id="path148" />
      <path
         d="m 16522.304,2557.7352 h -0.127 l 121.615,-256.2637 z"
         style="fill:#819498;fill-opacity:1;fill-rule:nonzero;stroke:none;stroke-width:1"
         id="path150" />
      <path
         d="m 3592.9337,2691.372 1649.5282,2.0248 99.3544,268.6656 -1614.2841,-1.2655 -134.5985,-269.4249"
         style="fill:#819498;fill-opacity:1;fill-rule:nonzero;stroke:none;stroke-width:1"
         id="path152" />
      <path
         d="m 5730.3753,2694.0295 571.8667,0.7593 77.1449,268.1594 -559.8571,-0.3796 -89.1545,-268.5391"
         style="fill:#819498;fill-opacity:1;fill-rule:nonzero;stroke:none;stroke-width:1"
         id="path154" />
      <path
         d="m 6786.283,2695.295 567.2602,0.7593 55.2391,267.9063 -555.4152,-0.6327 -67.0841,-268.0329"
         style="fill:#819498;fill-opacity:1;fill-rule:nonzero;stroke:none;stroke-width:1"
         id="path156" />
      <path
         d="m 7833.7877,2696.6871 562.7424,0.6327 33.7509,267.5267 -551.1504,-0.5062 -45.3429,-267.6532"
         style="fill:#819498;fill-opacity:1;fill-rule:nonzero;stroke:none;stroke-width:1"
         id="path158" />
      <path
         d="m 8872.9907,2697.826 558.3512,0.8859 12.5158,267.0204 -546.9237,-0.6327 -23.9433,-267.2736"
         style="fill:#819498;fill-opacity:1;fill-rule:nonzero;stroke:none;stroke-width:1"
         id="path160" />
      <path
         d="m 9903.9933,2699.0915 553.7827,0.8859 -8.099,266.5142 -542.773,-0.3796 -2.9107,-267.0205"
         style="fill:#819498;fill-opacity:1;fill-rule:nonzero;stroke:none;stroke-width:1"
         id="path162" />
      <path
         d="m 10909.18,2966.8713 17.59,-266.3877 549.607,0.6327 -28.601,266.2612 -538.596,-0.5062"
         style="fill:#819498;fill-opacity:1;fill-rule:nonzero;stroke:none;stroke-width:1"
         id="path164" />
      <path
         d="m 11903.736,2967.7571 37.965,-266.008 545.304,0.6327 -48.722,265.8815 -534.547,-0.5062"
         style="fill:#819498;fill-opacity:1;fill-rule:nonzero;stroke:none;stroke-width:1"
         id="path166" />
      <path
         d="m 12890.826,2968.643 57.707,-265.755 541.127,0.7593 -68.337,265.3753 -530.497,-0.3796"
         style="fill:#819498;fill-opacity:1;fill-rule:nonzero;stroke:none;stroke-width:1"
         id="path168" />
      <path
         d="m 13870.323,2969.5288 77.322,-265.3753 536.825,0.6328 -87.7,265.1222 -526.447,-0.3797"
         style="fill:#819498;fill-opacity:1;fill-rule:nonzero;stroke:none;stroke-width:1"
         id="path170" />
      <path
         d="m 14842.606,2970.2881 96.431,-264.8691 532.649,0.7593 -106.682,264.616 -522.398,-0.5062"
         style="fill:#819498;fill-opacity:1;fill-rule:nonzero;stroke:none;stroke-width:1"
         id="path172" />
      <path
         d="m 16099.753,2300.4591 544.039,1.0124 -121.615,256.2637 -196.152,413.945 -518.729,-0.5062 180.587,-414.1981 111.87,-256.5168 v 0"
         style="fill:#819498;fill-opacity:1;fill-rule:nonzero;stroke:none;stroke-width:1"
         id="path174" />
    </g>
  </g>
</svg>
